<?xml version="1.0" standalone="no"?><!DOCTYPE svg PUBLIC "-//W3C//DTD SVG 1.1//EN" "http://www.w3.org/Graphics/SVG/1.1/DTD/svg11.dtd"><svg t="1529984154573" class="icon" style="" viewBox="0 0 1024 1024" version="1.1" xmlns="http://www.w3.org/2000/svg" p-id="3872" xmlns:xlink="http://www.w3.org/1999/xlink" width="200" height="200"><defs><style type="text/css"></style></defs><path d="M656.564706 722.823529h307.2v-60.235294h-307.2zM656.564706 867.388235h307.2v-60.235294h-307.2z" fill="#222222" p-id="3873"></path><path d="M837.270588 987.858824v-277.082353h-60.235294v277.082353zM632.470588 548.141176l156.611765 144.564706 36.141176-42.164706-150.588235-150.588235z" fill="#222222" p-id="3874"></path><path d="M939.670588 499.952941l-150.588235 150.588235 42.164706 42.164706 150.588235-144.564706zM981.835294 355.388235v-180.705882c0-72.282353-60.235294-138.541176-132.517647-138.541177h-674.635294c-72.282353 0-132.517647 60.235294-132.517647 138.541177v680.658823c0 72.282353 60.235294 138.541176 132.517647 138.541177h313.223529v-60.235294h-313.223529c-42.164706 0-72.282353-36.141176-72.282353-78.305883v-680.658823c0-42.164706 36.141176-78.305882 72.282353-78.305882h674.635294c42.164706 0 72.282353 36.141176 72.282353 78.305882v186.729412h60.235294z" fill="#222222" p-id="3875"></path><path d="M204.8 343.341176h295.152941v-60.235294h-295.152941zM204.8 542.117647h295.152941v-60.235294h-295.152941z" fill="#222222" p-id="3876"></path></svg>