<?xml version="1.0" standalone="no"?><!DOCTYPE svg PUBLIC "-//W3C//DTD SVG 1.1//EN" "http://www.w3.org/Graphics/SVG/1.1/DTD/svg11.dtd"><svg t="1529983945783" class="icon" style="" viewBox="0 0 1024 1024" version="1.1" xmlns="http://www.w3.org/2000/svg" p-id="1363" xmlns:xlink="http://www.w3.org/1999/xlink" width="200" height="200"><defs><style type="text/css"></style></defs><path d="M1011.551086 375.310629 538.170514 36.922514c-3.349943-3.408457-8.382171-6.831543-11.746743-8.543086-13.443657-8.543086-33.572571-3.408457-43.651657 11.966171L12.741486 377.022171c-15.096686 10.254629-16.778971 32.4608-5.032229 49.5616 11.746743 17.071543 33.572571 22.2208 47.0016 11.951543l31.890286-23.917714 0 555.446857c0 20.494629 16.778971 37.595429 36.922514 37.595429 20.143543 0 36.922514-17.1008 36.922514-37.595429L160.446171 361.647543 512.980114 110.401829l355.883886 254.654171 0 603.282286c0 20.523886 16.778971 37.610057 36.922514 37.610057s36.922514-17.086171 36.922514-37.610057L942.709029 419.752229l25.1904 17.086171c15.111314 10.254629 35.269486 5.12 47.0016-11.966171C1026.6624 407.786057 1024.994743 385.565257 1011.551086 375.310629L1011.551086 375.310629 1011.551086 375.310629M341.767314 888.042057l-60.430629 0c-23.493486 0-28.540343 5.12-28.540343 29.037714l0 63.239314c0 23.917714 5.046857 29.037714 28.540343 29.037714l60.430629 0c23.493486 0 28.525714-5.134629 28.525714-29.037714l0-63.239314C368.625371 893.162057 363.593143 888.042057 341.767314 888.042057L341.767314 888.042057 341.767314 888.042057M341.767314 681.237943l-60.430629 0c-23.493486 0-28.540343 5.12-28.540343 29.037714l0 61.527771c0 23.932343 5.046857 29.037714 28.540343 29.037714l60.430629 0c23.493486 0 28.525714-5.12 28.525714-29.037714l0-63.239314C368.625371 686.357943 363.593143 681.237943 341.767314 681.237943L341.767314 681.237943 341.767314 681.237943M543.202743 888.042057l-60.430629 0c-23.508114 0-28.525714 5.12-28.525714 29.037714l0 63.239314c0 23.917714 5.0176 29.037714 28.525714 29.037714l60.430629 0c23.508114 0 28.540343-5.134629 28.540343-29.037714l0-63.239314C570.090057 893.162057 565.028571 888.042057 543.202743 888.042057L543.202743 888.042057 543.202743 888.042057M744.6528 888.042057l-60.445257 0c-23.493486 0-28.525714 5.12-28.525714 29.037714l0 63.239314c0 23.917714 5.032229 29.037714 28.525714 29.037714l60.445257 0c23.493486 0 28.511086-5.134629 28.511086-29.037714l0-63.239314C771.496229 893.162057 766.478629 888.042057 744.6528 888.042057L744.6528 888.042057 744.6528 888.042057M543.202743 681.237943l-60.430629 0c-23.508114 0-28.525714 5.12-28.525714 29.037714l0 61.527771c0 23.932343 5.0176 29.037714 28.525714 29.037714l60.430629 0c23.508114 0 28.540343-5.12 28.540343-29.037714l0-63.239314C570.090057 686.357943 565.028571 681.237943 543.202743 681.237943L543.202743 681.237943 543.202743 681.237943M341.767314 474.433829l-60.430629 0c-23.493486 0-28.540343 5.149257-28.540343 29.066971l0 63.224686c0 23.932343 5.046857 29.052343 28.540343 29.052343l60.430629 0c23.493486 0 28.525714-5.134629 28.525714-29.052343l0-63.224686C368.625371 477.871543 363.593143 474.433829 341.767314 474.433829L341.767314 474.433829 341.767314 474.433829M533.138286 607.758629 533.138286 607.758629z" p-id="1364"></path></svg>