<?xml version="1.0" standalone="no"?><!DOCTYPE svg PUBLIC "-//W3C//DTD SVG 1.1//EN" "http://www.w3.org/Graphics/SVG/1.1/DTD/svg11.dtd"><svg t="1532656161584" class="icon" style="" viewBox="0 0 1178 1024" version="1.1" xmlns="http://www.w3.org/2000/svg" p-id="4688" xmlns:xlink="http://www.w3.org/1999/xlink" width="230.078125" height="200"><defs><style type="text/css"></style></defs><path d="M616.502883 582.648779l71.012739 95.230555-92.573066 65.536-71.058957-95.230555a295.039097 295.039097 0 0 1-105.721861 25.56967L399.42066 789.505444l-113.232158-17.400778 18.660198-115.68167a283.184384 283.184384 0 0 1-92.76949-55.807278l-97.275667 69.117833-67.534894-90.146662 97.275667-69.117834a268.961038 268.961038 0 0 1-25.604333-102.914166l-118.939983-18.486883 17.816733-110.077834 118.882212 17.920722a274.403114 274.403114 0 0 1 56.985817-90.123554l-71.012739-95.230556 92.619283-65.536 71.012739 94.745275a305.588175 305.588175 0 0 1 105.848959-25.084389L410.83631 0l113.232158 17.400779-18.717969 115.716332a282.883972 282.883972 0 0 1 92.827261 55.807278l97.287222-69.637777 67.477122 90.620389-97.287221 69.129388a268.961038 268.961038 0 0 1 25.604333 102.914167l118.882211 18.486883-17.770516 110.077833-118.859103-18.486883a276.471334 276.471334 0 0 1-57.008925 90.62039zM422.783458 284.674889a113.925416 113.925416 0 0 0-130.968011 92.677055 111.718544 111.718544 0 0 0 93.670725 127.235971l1.767808 0.254195a113.925416 113.925416 0 0 0 130.968012-92.677055 111.776316 111.776316 0 0 0-93.774714-127.247526z m534.097603 665.597111l-2.045112 73.728-71.636671-2.045111 2.102883-73.728a179.98136 179.98136 0 0 1-62.39323-27.141055l-54.836717 50.688722-49.498629-50.688722 54.836717-50.688723a172.043554 172.043554 0 0 1-24.264034-61.954166l-75.63446-2.045111 1.998894-70.146167 75.576689 2.045112a174.042449 174.042449 0 0 1 27.730324-60.925834l-51.878815-53.299994 52.225444-48.123668 51.867261 53.253778a193.499893 193.499893 0 0 1 63.849072-23.547667l2.102883-73.728 71.636671 2.045111-2.102883 73.728a317.281128 317.281128 0 0 1 62.39323 27.141055l54.836717-50.688722 49.406194 50.688722-54.836716 50.688722a172.043554 172.043554 0 0 1 24.264034 61.954167l75.622905 2.045111-1.941122 70.146166-75.622906-2.045111a174.042449 174.042449 0 0 1-27.730324 60.925834l51.913478 53.253777-52.179227 48.135221-51.867261-53.253777a193.603882 193.603882 0 0 1-63.895289 23.547667z m21.0866-220.167221a73.115622 73.115622 0 0 0-101.585421-3.073445 69.164051 69.164051 0 0 0-4.321309 97.726285c0.496835 0.543052 0.99367 1.07455 1.513613 1.594494a73.624011 73.624011 0 0 0 101.677857 2.565055 68.551673 68.551673 0 0 0 4.829698-96.836604c-0.600824-0.67015-1.224756-1.328745-1.860243-1.975785z" p-id="4689"></path></svg>